<?xml version="1.0" encoding="utf-8"?>
<!-- Generator: Adobe Illustrator 23.0.2, SVG Export Plug-In . SVG Version: 6.00 Build 0)  -->
<svg version="1.1" id="Layer_1" xmlns="http://www.w3.org/2000/svg" xmlns:xlink="http://www.w3.org/1999/xlink" x="0px" y="0px"
	 viewBox="0 0 151.43 44.86" style="enable-background:new 0 0 151.43 44.86;" xml:space="preserve">
<style type="text/css">
	.st0{fill-rule:evenodd;clip-rule:evenodd;fill:#260000;}
	.st1{fill-rule:evenodd;clip-rule:evenodd;fill:#FF3500;}
	.st2{fill:#FF3500;}
	.st3{fill:#FFD0CC;}
	.st4{fill:#929497;}
	.st5{fill:#231F20;}
</style>
<g>
	<g>
		<g>
			<rect x="1.88" y="1.88" class="st0" width="41.37" height="40.24"/>
		</g>
		<g>
			<path class="st1" d="M0,0v44h45.13V0H0z M1.88,1.88h41.37v40.24H1.88V1.88z"/>
		</g>
		<rect x="8.4" y="29.42" class="st2" width="28.2" height="1.41"/>
		<g>
			<path class="st3" d="M16.69,27.13c-0.23,0-0.45-0.05-0.66-0.16c-0.56-0.28-0.82-0.79-0.72-1.4c0.29-1.84,3.94-4.76,7.45-6.35
				c3.21-4.66,4.57-7.45,4.07-8.29c-0.16-0.27-0.67-0.27-1.07-0.22c-2.7,0.33-7.69,4.22-7.84,6.12c-0.02,0.19-0.05,0.57,0.76,0.81
				c0.27,0.08,0.43,0.36,0.35,0.64c-0.08,0.27-0.36,0.43-0.64,0.35c-1.4-0.41-1.53-1.35-1.49-1.88c0.21-2.56,5.76-6.69,8.74-7.05
				c1.02-0.12,1.71,0.11,2.07,0.7c0.73,1.21-0.19,3.55-3.26,8.15c0.56-0.18,1.11-0.32,1.61-0.39c0.55-0.08,0.81,0.22,0.89,0.36
				c0.27,0.43,0.15,1.53-1.58,4.28c1.22-0.68,2.86-1.55,4.45-2.22c0.64-0.27,0.96-0.08,1.11,0.13c0.17,0.22,0.49,0.66-1.32,3.06
				c1.83-0.57,4.75-1.26,6.81-0.65c0.27,0.08,0.43,0.36,0.35,0.64c-0.08,0.27-0.36,0.43-0.64,0.35c-2.79-0.82-7.78,1.2-7.83,1.22
				c-0.22,0.09-0.47,0.02-0.61-0.17c-0.14-0.19-0.13-0.45,0.02-0.63c0.79-0.95,1.63-2.08,2.05-2.79c-2.82,1.25-5.76,3.07-5.79,3.08
				c-0.21,0.13-0.48,0.09-0.64-0.08c-0.17-0.18-0.19-0.45-0.05-0.65c1.28-1.82,2.6-4.06,2.76-4.87c-0.82,0.15-1.71,0.44-2.6,0.82
				c-0.01,0.02-0.02,0.03-0.03,0.05C20.51,24.26,18.39,27.13,16.69,27.13z M21.51,21.01c-2.7,1.55-5.02,3.66-5.19,4.72
				c-0.03,0.17,0.01,0.25,0.17,0.32C17.43,26.52,19.75,23.49,21.51,21.01z"/>
		</g>
		<polygon class="st1" points="8.59,16.56 8.59,22.49 11.14,26.58 13.69,22.49 13.69,16.56 		"/>
	</g>
	<g>
		<g>
			<path class="st4" d="M52.63,4.58c0-0.07,0.03-0.11,0.1-0.11c0.53-0.01,1.57-0.04,2.59-0.04c2.72,0,3.73,1.51,3.73,3.05
				c0,2.23-1.72,3.19-3.84,3.19c-0.45,0-0.56,0-0.88,0v2.87c0,0.07-0.03,0.11-0.11,0.11h-1.47c-0.07,0-0.11-0.03-0.11-0.1V4.58z
				 M54.33,9.17c0.24,0.01,0.42,0.01,0.88,0.01c1.18,0,2.17-0.39,2.17-1.67c0-1.02-0.73-1.62-2.02-1.62c-0.49,0-0.88,0.01-1.04,0.03
				V9.17z"/>
			<path class="st4" d="M68.82,9c0.01,2.9-1.78,4.79-4.33,4.79c-2.72,0-4.34-2.02-4.34-4.75c0-2.69,1.76-4.73,4.34-4.73
				C67.24,4.31,68.81,6.41,68.82,9z M64.55,12.29c1.58,0,2.54-1.3,2.52-3.25c0-1.96-0.97-3.24-2.6-3.24c-1.49,0-2.56,1.16-2.56,3.24
				C61.9,10.85,62.82,12.29,64.55,12.29z"/>
			<path class="st4" d="M78.02,11.61h0.01c0.14-0.78,0.5-2.65,1.49-7.05c0.01-0.07,0.06-0.11,0.14-0.11h1.47
				c0.08,0,0.11,0.04,0.1,0.13l-2.37,8.99c-0.03,0.07-0.05,0.08-0.14,0.08H77.2c-0.1,0-0.11-0.03-0.14-0.08
				c-0.42-1.82-1.36-5.83-1.64-7.21h-0.01c-0.25,1.42-1.34,5.46-1.79,7.17c-0.01,0.07-0.04,0.13-0.14,0.13h-1.48
				c-0.08,0-0.11-0.04-0.15-0.11L69.5,4.56c-0.01-0.08,0.01-0.11,0.08-0.11h1.58c0.07,0,0.13,0,0.14,0.1c1.19,5,1.44,6.28,1.55,7.04
				h0.01c0.17-0.91,0.59-2.45,1.67-7.03c0.01-0.08,0.07-0.11,0.14-0.11h1.63c0.07,0,0.08,0.03,0.11,0.11
				C76.97,6.87,77.64,9.69,78.02,11.61z"/>
			<path class="st4" d="M88.14,13.54c-0.01,0.1-0.04,0.11-0.13,0.11h-5.58c-0.1,0-0.13-0.04-0.13-0.11V4.56
				c0-0.07,0.03-0.11,0.11-0.11h5.41c0.08,0,0.11,0.01,0.13,0.1l0.15,1.3c0.01,0.07-0.01,0.13-0.1,0.13h-4.01V8.2h3.64
				c0.07,0,0.1,0.01,0.1,0.1v1.33c0,0.07-0.04,0.08-0.1,0.08h-3.64v2.41h4.24c0.08,0,0.11,0.04,0.1,0.11L88.14,13.54z"/>
			<path class="st4" d="M89.72,13.65c-0.08,0-0.11-0.03-0.11-0.11V4.59c0-0.07,0.01-0.13,0.1-0.13c1.11-0.03,1.7-0.04,2.77-0.04
				c2.24,0,3.56,0.97,3.56,2.76c0,1.22-0.79,2.09-1.81,2.47c0.46,0.64,2.14,3.15,2.55,3.85c0.04,0.08,0.06,0.15-0.03,0.15H95
				c-0.11,0-0.15-0.03-0.2-0.07c-0.41-0.63-1.39-2.24-2-3.22c-0.1-0.17-0.17-0.24-0.32-0.24h-1.2v3.42c0,0.08-0.04,0.11-0.11,0.11
				H89.72z M92.49,8.68c1.13,0,1.86-0.5,1.86-1.4c0-0.92-0.74-1.39-1.93-1.39c-0.48,0-0.92,0.01-1.15,0.03v2.76H92.49z"/>
			<path class="st4" d="M103.58,13.54c-0.01,0.1-0.04,0.11-0.13,0.11h-5.58c-0.1,0-0.13-0.04-0.13-0.11V4.56
				c0-0.07,0.03-0.11,0.11-0.11h5.41c0.08,0,0.11,0.01,0.13,0.1l0.15,1.3c0.01,0.07-0.01,0.13-0.1,0.13h-4.01V8.2h3.64
				c0.07,0,0.1,0.01,0.1,0.1v1.33c0,0.07-0.04,0.08-0.1,0.08h-3.64v2.41h4.24c0.08,0,0.11,0.04,0.1,0.11L103.58,13.54z"/>
			<path class="st4" d="M105.05,4.58c0-0.07,0.01-0.1,0.1-0.11c0.41-0.01,1.36-0.04,2.65-0.04c3.29,0,4.94,1.86,4.94,4.47
				c0,3.42-2.61,4.79-4.97,4.79c-0.88,0-2.17,0-2.62-0.03c-0.06,0-0.1-0.04-0.1-0.13V4.58z M106.74,12.2
				c0.28,0.01,0.59,0.01,0.95,0.01c1.97,0,3.3-1.15,3.3-3.28c0-2.03-1.33-3.04-3.22-3.04c-0.39,0-0.7,0.01-1.04,0.03V12.2z"/>
			<path class="st4" d="M117.35,4.59c0-0.07,0.01-0.11,0.08-0.13c0.5-0.01,1.78-0.04,2.72-0.04c2.93,0,3.38,1.54,3.38,2.44
				c0,1-0.53,1.57-0.88,1.82c0.52,0.27,1.34,0.88,1.34,2.17c0,1.77-1.53,2.83-3.84,2.83c-1.22,0-2.17-0.01-2.7-0.03
				c-0.07-0.01-0.1-0.06-0.1-0.11V4.59z M119.02,8.12h1.06c0.5,0,1.06,0.04,1.28,0.08c0.29-0.24,0.53-0.56,0.53-1.11
				c0-0.83-0.62-1.23-1.76-1.23c-0.45,0-0.81,0.01-1.11,0.01V8.12z M119.02,12.24c0.31,0.01,0.66,0.03,1.08,0.03
				c1.32,0.01,2.16-0.43,2.16-1.37c0-0.57-0.28-1.04-1.01-1.22c-0.25-0.07-0.57-0.1-0.95-0.1h-1.28V12.24z"/>
			<path class="st4" d="M124.13,4.58c-0.06-0.08,0.01-0.13,0.07-0.13h1.69c0.08,0,0.1,0.03,0.13,0.07c1.48,2.89,1.96,3.77,2.16,4.24
				c0.22-0.49,0.67-1.42,2.09-4.23c0.01-0.07,0.04-0.08,0.11-0.08h1.64c0.07,0,0.08,0.04,0.06,0.11l-3.04,5.42
				c-0.08,0.14-0.11,0.25-0.11,0.42c0,1.02,0,3.12,0,3.12c0,0.1-0.03,0.13-0.13,0.13h-1.43c-0.11,0-0.14-0.04-0.14-0.13v-3.18
				c0-0.18-0.01-0.25-0.1-0.41L124.13,4.58z"/>
		</g>
		<g>
			<path class="st5" d="M54.6,33.68l-1.87,5.26c-0.05,0.1-0.07,0.12-0.19,0.12h-1.3c-0.12,0-0.14-0.05-0.12-0.17l5.35-14.79
				c0.07-0.17,0.12-0.31,0.14-0.84c0-0.07,0.05-0.12,0.12-0.12h1.92c0.1,0,0.12,0.02,0.14,0.1l5.69,15.65c0.02,0.12,0,0.17-0.1,0.17
				h-1.46c-0.07,0-0.12-0.02-0.17-0.12l-1.9-5.26H54.6z M60.41,32.19c-0.53-1.56-2.21-6.14-2.66-7.75h-0.02
				c-0.43,1.54-1.66,4.9-2.66,7.75H60.41z"/>
			<path class="st5" d="M64.49,33.34c0-3.53,2.64-6.1,6.41-6.1c0.79,0,1.22,0.05,1.73,0.17v-5.5c0-0.1,0.05-0.14,0.12-0.14h1.37
				c0.12,0,0.12,0.05,0.12,0.14V37.3c0,0.26,0.02,0.6,0.05,0.96c0,0.1,0,0.12-0.1,0.17c-1.27,0.62-2.57,0.86-3.84,0.86
				C67.03,39.29,64.49,37.28,64.49,33.34z M72.62,28.92c-0.43-0.19-1.08-0.26-1.78-0.26c-2.98,0-4.7,2.04-4.7,4.61
				c0,3.34,2.14,4.58,4.34,4.58c0.67,0,1.54-0.1,2.14-0.36V28.92z"/>
			<path class="st5" d="M86.81,33.24c0,3.6-2.18,6.05-5.35,6.05c-3.77,0-5.4-3.14-5.4-6.02c0-3.41,2.16-6.02,5.4-6.02
				C84.72,27.24,86.81,29.74,86.81,33.24z M77.69,33.22c0,2.54,1.37,4.66,3.84,4.66c1.78,0,3.65-1.39,3.65-4.58
				c0-2.35-1.1-4.63-3.79-4.63C79.18,28.66,77.69,30.51,77.69,33.22z"/>
			<path class="st5" d="M90.17,21.77c0.1,0,0.14,0.02,0.14,0.14v5.86c0.82-0.36,1.73-0.53,2.76-0.53c3.26,0,5.4,2.33,5.4,5.57
				c0,4.27-3.22,6.48-6.5,6.48c-1.2,0-2.16-0.14-3.14-0.48c-0.1-0.02-0.12-0.12-0.12-0.19V21.91c0-0.1,0.02-0.14,0.12-0.14H90.17z
				 M92.83,28.66c-1.1,0-1.85,0.19-2.52,0.48v8.52c0.5,0.14,1.03,0.22,1.78,0.22c2.45,0,4.73-1.66,4.73-4.92
				C96.82,30.41,95.3,28.66,92.83,28.66z"/>
			<path class="st5" d="M101.11,33.32c-0.07,2.54,1.34,4.51,4.18,4.51c1.03,0,2.06-0.17,3-0.65c0.07-0.05,0.12,0,0.12,0.1v1.1
				c0,0.12-0.05,0.17-0.12,0.19c-0.74,0.43-1.82,0.72-3.29,0.72c-4.06,0-5.52-3.02-5.52-5.93c0-3.38,1.94-6.12,5.16-6.12
				c3.38,0,4.56,2.76,4.56,4.7c0,0.55-0.02,0.94-0.07,1.13c0,0.1-0.07,0.14-0.17,0.17c-0.36,0.05-1.46,0.07-2.47,0.07H101.11z
				 M105.98,32.07c1.3,0,1.56-0.02,1.66-0.05c0-0.07,0.02-0.22,0.02-0.29c0-0.96-0.6-3.12-3.07-3.12c-2.14,0-3.22,1.68-3.46,3.46
				H105.98z"/>
			<path class="st5" d="M115.12,38.36c-0.1-0.05-0.12-0.12-0.12-0.26V36.7c0-0.1,0.07-0.12,0.17-0.07c1.25,0.86,2.76,1.18,4.03,1.18
				c2.45,0,3.6-1.15,3.6-2.76c0-1.25-0.67-2.18-3.02-3.22l-1.03-0.43c-2.95-1.3-3.6-2.78-3.6-4.32c0-2.5,1.9-4.18,4.99-4.18
				c1.51,0,2.78,0.26,3.48,0.67c0.1,0.05,0.12,0.1,0.12,0.22v1.3c0,0.1-0.07,0.14-0.17,0.1c-0.84-0.55-2.14-0.82-3.48-0.82
				c-2.71,0-3.36,1.49-3.36,2.54c0,1.2,0.65,2.11,2.88,3.07l1.06,0.46c2.9,1.25,3.77,2.71,3.77,4.46c0,2.5-1.85,4.39-5.28,4.39
				C117.52,39.29,116.06,38.93,115.12,38.36z"/>
			<path class="st5" d="M126.38,23.83c0-0.62,0.41-1.06,1.03-1.06c0.65,0,1.01,0.46,1.01,1.06c0,0.58-0.41,1.03-1.03,1.03
				C126.76,24.87,126.38,24.43,126.38,23.83z M126.6,27.6c0-0.1,0.02-0.14,0.12-0.14h1.34c0.1,0,0.14,0.02,0.14,0.14v11.31
				c0,0.1-0.02,0.14-0.14,0.14h-1.3c-0.14,0-0.17-0.05-0.17-0.17V27.6z"/>
			<path class="st5" d="M136.17,37.3c2.86,0.17,4.63,1.13,4.63,3.34c0,2.35-2.23,4.22-5.66,4.22c-3.41,0-5.16-1.85-5.16-3.65
				c0-0.84,0.7-1.94,2.38-3.36c-0.38-0.53-0.58-1.13-0.58-1.78c0-0.53,0.12-1.06,0.38-1.51c-0.98-0.67-1.61-1.75-1.61-3.26
				c0-2.23,1.61-4.06,4.34-4.06c0.72,0,1.27,0.07,1.68,0.17c0.19,0.05,0.34,0.05,0.48,0.05h3.43c0.1,0,0.12,0.05,0.12,0.14v1.1
				c0,0.1-0.02,0.14-0.14,0.14c-0.7,0-1.78-0.02-2.38-0.07c0.5,0.48,0.98,1.32,0.98,2.54c0,2.64-1.92,3.98-4.22,3.98
				c-0.5,0-0.98-0.07-1.44-0.19c-0.14,0.31-0.19,0.65-0.17,0.98c0.05,0.38,0.22,0.77,0.48,1.08L136.17,37.3z M133.36,38.62
				c-1.13,0.77-1.85,1.9-1.85,2.5c0,1.2,1.42,2.45,3.72,2.45c2.78,0,4.06-1.42,4.06-2.74c0-1.56-1.63-1.97-3.46-2.06L133.36,38.62z
				 M132.14,31.28c0,1.61,0.96,2.76,2.71,2.76c1.63,0,2.66-0.98,2.66-2.74c0-1.49-0.82-2.81-2.64-2.81
				C133.24,28.49,132.14,29.62,132.14,31.28z"/>
			<path class="st5" d="M142.27,30.17c0-0.84-0.07-2.21-0.1-2.57c0-0.1,0.02-0.14,0.14-0.14h1.18c0.12,0,0.17,0.05,0.19,0.14
				c0.05,0.22,0.1,0.72,0.12,1.3c1.08-1.1,2.35-1.66,3.77-1.66c1.66,0,3.86,0.77,3.86,4.56v7.11c0,0.1-0.05,0.14-0.17,0.14h-1.3
				c-0.12,0-0.17-0.05-0.17-0.17v-6.94c0-1.9-0.84-3.26-2.64-3.26c-1.34,0-2.45,0.62-3.29,1.68v8.54c0,0.1-0.02,0.14-0.14,0.14
				h-1.32c-0.12,0-0.14-0.05-0.14-0.14V30.17z"/>
		</g>
	</g>
</g>
</svg>
