<svg xmlns="http://www.w3.org/2000/svg" xmlns:xlink="http://www.w3.org/1999/xlink" width="100" height="31" viewBox="0 0 100 31">
  <defs>
    <clipPath id="clip-Powered_by_Adobe_Sign_with_Adobe_Sign_logo_reversed">
      <rect width="100" height="31"/>
    </clipPath>
  </defs>
  <g id="Powered_by_Adobe_Sign_with_Adobe_Sign_logo_reversed" clip-path="url(#clip-Powered_by_Adobe_Sign_with_Adobe_Sign_logo_reversed)">
    <g id="Powered_by_Adobe_Sign_with_Adobe_Sign_logo_reversed-2" data-name="Powered_by_Adobe_Sign_with_Adobe_Sign_logo_reversed">
      <g id="Group_70372" data-name="Group 70372">
        <g id="Group_70369" data-name="Group 70369" transform="translate(1.254 1.254)">
          <rect id="Rectangle_8" data-name="Rectangle 8" width="27.327" height="26.535" fill="#260000"/>
        </g>
        <g id="Group_70370" data-name="Group 70370">
          <path id="Path_40020" data-name="Path 40020" d="M0,0V29.043H29.769V0ZM1.254,1.254H28.581V27.789H1.254Z" fill="#ff3500" fill-rule="evenodd"/>
        </g>
        <rect id="Rectangle_9" data-name="Rectangle 9" width="18.614" height="0.924" transform="translate(5.545 19.406)" fill="#ff3500"/>
        <g id="Group_70371" data-name="Group 70371" transform="translate(10.083 6.254)">
          <path id="Path_40021" data-name="Path 40021" d="M16.216,21.109a.628.628,0,0,1-.462-.132.8.8,0,0,1-.462-.924c.2-1.188,2.574-3.168,4.884-4.224,2.112-3.1,3.036-4.884,2.706-5.479-.132-.2-.462-.2-.726-.132-1.782.2-5.083,2.772-5.149,4.026,0,.132,0,.4.528.528a.337.337,0,1,1-.132.66,1.2,1.2,0,0,1-.99-1.254c.132-1.716,3.828-4.422,5.743-4.686a1.354,1.354,0,0,1,1.386.462c.462.792-.132,2.376-2.178,5.347a8.209,8.209,0,0,1,1.056-.264.529.529,0,0,1,.594.264c.2.264.066.99-1.056,2.838.792-.462,1.914-.99,2.9-1.452.4-.2.66-.066.726.066.132.132.33.462-.858,2.046a7.973,7.973,0,0,1,4.488-.4.294.294,0,0,1,.2.4.41.41,0,0,1-.4.264c-1.848-.528-5.149.792-5.149.792a.317.317,0,0,1-.4-.132.415.415,0,0,1,0-.4,17.072,17.072,0,0,0,1.32-1.848c-1.848.924-3.762,2.112-3.762,2.112-.132.066-.33.066-.4-.066-.132-.132-.132-.33,0-.4a14.791,14.791,0,0,0,1.848-3.234,6.343,6.343,0,0,0-1.716.528h0C18.724,19.261,17.338,21.109,16.216,21.109Zm3.168-4.026c-1.782.99-3.3,2.442-3.432,3.1,0,.132,0,.2.132.2C16.678,20.713,18.262,18.733,19.384,17.082Z" transform="translate(-15.275 -9.475)" fill="#ffd0cc"/>
        </g>
        <path id="Path_40022" data-name="Path 40022" d="M8.6,16.6v3.894L10.25,23.2l1.716-2.706V16.6Z" transform="translate(-2.923 -5.643)" fill="#ff3500" fill-rule="evenodd"/>
      </g>
      <g id="Group_70375" data-name="Group 70375" transform="translate(33.729 2.838)">
        <g id="Group_70373" data-name="Group 70373" transform="translate(0.99)">
          <path id="Path_40023" data-name="Path 40023" d="M52.6,4.566c0-.066,0-.066.066-.066h1.716c1.782,0,2.442.99,2.442,1.98,0,1.452-1.122,2.112-2.508,2.112h-.594v1.914c0,.066,0,.066-.066.066h-.99c-.066,0-.066,0-.066-.066V4.566ZM53.722,7.6h.594c.792,0,1.452-.264,1.452-1.122,0-.66-.462-1.056-1.32-1.056h-.66L53.722,7.6Z" transform="translate(-52.6 -4.368)" fill="#929497"/>
          <path id="Path_40024" data-name="Path 40024" d="M65.877,7.4a2.871,2.871,0,0,1-2.838,3.168c-1.782,0-2.838-1.32-2.838-3.168a2.886,2.886,0,0,1,2.838-3.1A2.846,2.846,0,0,1,65.877,7.4ZM63.1,9.581c1.056,0,1.65-.858,1.65-2.178s-.66-2.112-1.716-2.112c-.99,0-1.716.792-1.716,2.112C61.322,8.656,61.916,9.581,63.1,9.581Z" transform="translate(-55.183 -4.3)" fill="#929497"/>
          <path id="Path_40025" data-name="Path 40025" d="M75.111,9.152h0c.132-.528.33-1.782.99-4.686a.065.065,0,0,1,.066-.066h.99c.066,0,.066,0,.066.066l-1.584,5.941a.065.065,0,0,1-.066.066h-.99c-.066,0-.066,0-.066-.066-.264-1.188-.924-3.828-1.056-4.752h0c-.2.924-.858,3.63-1.188,4.752,0,.066,0,.066-.066.066H71.15c-.066,0-.066,0-.132-.066L69.5,4.466c0-.066,0-.066.066-.066h1.056c.066,0,.066,0,.066.066.792,3.3.924,4.158,1.056,4.62h0c.132-.594.4-1.584,1.122-4.62a.065.065,0,0,1,.066-.066h1.056c.066,0,.066,0,.066.066C74.45,6.05,74.847,7.9,75.111,9.152Z" transform="translate(-58.345 -4.334)" fill="#929497"/>
          <path id="Path_40026" data-name="Path 40026" d="M86.128,10.407c0,.066,0,.066-.066.066h-3.7c-.066,0-.066,0-.066-.066V4.466c0-.066,0-.066.066-.066H85.93C86,4.4,86,4.4,86,4.466l.132.858c0,.066,0,.066-.066.066h-2.64V6.842H85.8c.066,0,.066,0,.066.066v.858c0,.066,0,.066-.066.066H83.422V9.417h2.772c.066,0,.066,0,.066.066Z" transform="translate(-62.696 -4.334)" fill="#929497"/>
          <path id="Path_40027" data-name="Path 40027" d="M89.666,10.507c-.066,0-.066,0-.066-.066V4.566c0-.066,0-.066.066-.066h1.848c1.452,0,2.376.66,2.376,1.848A1.791,1.791,0,0,1,92.7,8c.33.4,1.386,2.112,1.716,2.508,0,.066.066.066,0,.066H93.164c-.066,0-.132,0-.132-.066-.264-.4-.924-1.452-1.32-2.112-.066-.132-.132-.132-.2-.132h-.792v2.244c0,.066,0,.066-.066.066h-.99Zm1.848-3.234c.726,0,1.254-.33,1.254-.924s-.462-.924-1.254-.924h-.792V7.272Z" transform="translate(-65.178 -4.368)" fill="#929497"/>
          <path id="Path_40028" data-name="Path 40028" d="M101.628,10.407c0,.066,0,.066-.066.066h-3.7c-.066,0-.066,0-.066-.066V4.466c0-.066,0-.066.066-.066h3.564c.066,0,.066,0,.066.066l.132.858c0,.066,0,.066-.066.066h-2.64V6.842H101.3c.066,0,.066,0,.066.066v.858c0,.066,0,.066-.066.066H98.922V9.417h2.772c.066,0,.066,0,.066.066Z" transform="translate(-67.965 -4.334)" fill="#929497"/>
          <path id="Path_40029" data-name="Path 40029" d="M105.1,4.566c0-.066,0-.066.066-.066h1.782c2.178,0,3.234,1.254,3.234,2.97a3.07,3.07,0,0,1-3.3,3.168h-1.716c-.066,0-.066,0-.066-.066Zm1.056,5.017h.594A1.981,1.981,0,0,0,108.928,7.4a1.876,1.876,0,0,0-2.112-1.98h-.66V9.583Z" transform="translate(-70.447 -4.368)" fill="#929497"/>
          <path id="Path_40030" data-name="Path 40030" d="M117.3,4.566c0-.066,0-.066.066-.066h1.782c1.914,0,2.244.99,2.244,1.584a1.291,1.291,0,0,1-.594,1.188,1.6,1.6,0,0,1,.858,1.452c0,1.188-.99,1.848-2.508,1.848h-1.782a.065.065,0,0,1-.066-.066C117.366,10.441,117.366,4.566,117.3,4.566Zm1.122,2.31h.726a2.978,2.978,0,0,1,.858.066.852.852,0,0,0,.33-.726q0-.792-1.188-.792h-.726Zm0,2.706h.726c.858,0,1.452-.264,1.452-.924a.772.772,0,0,0-.66-.792,1.827,1.827,0,0,0-.594-.066h-.924Z" transform="translate(-74.594 -4.368)" fill="#929497"/>
          <path id="Path_40031" data-name="Path 40031" d="M124.086,4.566c-.066-.066,0-.066.066-.066h1.122c.066,0,.066,0,.066.066.99,1.914,1.32,2.508,1.452,2.772.132-.33.462-.924,1.386-2.772,0-.066,0-.066.066-.066H129.3c.066,0,.066,0,.066.066l-1.98,3.564a.4.4,0,0,0-.066.264v2.046c0,.066,0,.066-.066.066h-.924c-.066,0-.066,0-.066-.066V8.328c0-.132,0-.2-.066-.264Z" transform="translate(-76.891 -4.368)" fill="#929497"/>
        </g>
        <g id="Group_70374" data-name="Group 70374" transform="translate(0 11.551)">
          <path id="Path_40032" data-name="Path 40032" d="M53.41,30.131l-1.254,3.5c0,.066-.066.066-.132.066h-.858c-.066,0-.066,0-.066-.132l3.5-9.769c.066-.132.066-.2.066-.528,0-.066,0-.066.066-.066h1.254c.066,0,.066,0,.066.066l3.762,10.3c0,.066,0,.132-.066.132h-.99c-.066,0-.066,0-.132-.066l-1.254-3.5H53.41Zm3.828-.99c-.33-1.056-1.452-4.026-1.782-5.149h0c-.264.99-1.122,3.234-1.782,5.149Z" transform="translate(-51.1 -22.276)" fill="#fff"/>
          <path id="Path_40033" data-name="Path 40033" d="M64.5,29.391a3.972,3.972,0,0,1,4.224-4.026,2.749,2.749,0,0,1,1.122.132v-3.63a.065.065,0,0,1,.066-.066h.924c.066,0,.066,0,.066.066V32.031a2.476,2.476,0,0,0,.066.66c0,.066,0,.066-.066.132a6.041,6.041,0,0,1-2.508.594A3.709,3.709,0,0,1,64.5,29.391Zm5.347-2.9a2.968,2.968,0,0,0-1.188-.2,2.893,2.893,0,0,0-3.1,3.036,2.72,2.72,0,0,0,2.838,3.036,3.246,3.246,0,0,0,1.386-.264C69.847,32.163,69.847,26.486,69.847,26.486Z" transform="translate(-55.655 -21.8)" fill="#fff"/>
          <path id="Path_40034" data-name="Path 40034" d="M83.163,31.16c0,2.376-1.452,3.96-3.5,3.96-2.508,0-3.564-2.046-3.564-3.96a3.654,3.654,0,0,1,3.564-3.96C81.777,27.2,83.163,28.85,83.163,31.16Zm-6.007,0c0,1.65.924,3.1,2.508,3.1,1.188,0,2.442-.924,2.442-3.036,0-1.584-.726-3.036-2.508-3.036C78.146,28.19,77.156,29.378,77.156,31.16Z" transform="translate(-59.598 -23.636)" fill="#fff"/>
          <path id="Path_40035" data-name="Path 40035" d="M89.724,21.8c.066,0,.066,0,.066.066V25.76a4.028,4.028,0,0,1,1.848-.33,3.431,3.431,0,0,1,3.564,3.7,4.117,4.117,0,0,1-4.29,4.29,4.941,4.941,0,0,1-2.046-.33c-.066,0-.066-.066-.066-.132V21.866c0-.066,0-.066.066-.066Zm1.716,4.554a3.848,3.848,0,0,0-1.65.33V32.3a5.386,5.386,0,0,0,1.188.132,3.049,3.049,0,0,0,3.1-3.234A2.552,2.552,0,0,0,91.44,26.354Z" transform="translate(-63.916 -21.8)" fill="#fff"/>
          <path id="Path_40036" data-name="Path 40036" d="M100.556,31.226a2.62,2.62,0,0,0,2.772,2.97,4.16,4.16,0,0,0,1.98-.462c.066,0,.066,0,.066.066v.726a.23.23,0,0,1-.066.132,4.457,4.457,0,0,1-2.178.462c-2.706,0-3.63-1.98-3.63-3.894,0-2.244,1.254-4.026,3.432-4.026a2.973,2.973,0,0,1,3.036,3.1,2.053,2.053,0,0,1-.066.726c0,.066-.066.066-.132.132-.264,0-.99.066-1.65.066Zm3.234-.792h1.122v-.2a1.976,1.976,0,0,0-2.046-2.046,2.433,2.433,0,0,0-2.31,2.31h3.234Z" transform="translate(-67.553 -23.636)" fill="#fff"/>
          <path id="Path_40037" data-name="Path 40037" d="M115.066,33.131c-.066,0-.066-.066-.066-.2v-.924c0-.066.066-.066.132-.066a4.69,4.69,0,0,0,2.64.792c1.584,0,2.376-.792,2.376-1.848,0-.858-.462-1.452-1.98-2.112l-.66-.264c-1.914-.858-2.376-1.848-2.376-2.838,0-1.65,1.254-2.772,3.3-2.772a5.063,5.063,0,0,1,2.31.462c.066,0,.066.066.066.132v.858c0,.066-.066.066-.132.066a4.6,4.6,0,0,0-2.31-.528c-1.782,0-2.244.99-2.244,1.65,0,.792.462,1.386,1.914,2.046l.726.33c1.914.858,2.508,1.782,2.508,2.97,0,1.65-1.188,2.9-3.5,2.9A7.061,7.061,0,0,1,115.066,33.131Z" transform="translate(-72.822 -22.174)" fill="#fff"/>
          <path id="Path_40038" data-name="Path 40038" d="M126.4,23.426a.678.678,0,0,1,.66-.726.642.642,0,0,1,.66.726.624.624,0,0,1-.66.66C126.664,24.152,126.4,23.822,126.4,23.426Zm.132,2.508c0-.066,0-.066.066-.066h.858c.066,0,.066,0,.066.066v7.459c0,.066,0,.066-.066.066H126.6c-.066,0-.132,0-.132-.132l.066-7.393Z" transform="translate(-76.697 -22.106)" fill="#fff"/>
          <path id="Path_40039" data-name="Path 40039" d="M134.058,33.8c1.914.132,3.036.726,3.036,2.178,0,1.518-1.452,2.772-3.762,2.772-2.244,0-3.432-1.188-3.432-2.442,0-.528.462-1.254,1.584-2.244a1.843,1.843,0,0,1-.4-1.188,1.719,1.719,0,0,1,.264-.99,2.517,2.517,0,0,1-1.056-2.178A2.671,2.671,0,0,1,133.134,27a4.739,4.739,0,0,1,1.122.132h2.574c.066,0,.066,0,.066.066v.726c0,.066,0,.066-.066.066a12.2,12.2,0,0,1-1.584-.066,2.258,2.258,0,0,1,.66,1.65,2.563,2.563,0,0,1-2.772,2.64,3.9,3.9,0,0,1-.924-.132,2.345,2.345,0,0,0-.132.66,1.465,1.465,0,0,0,.33.726Zm-1.848.858a2.863,2.863,0,0,0-1.254,1.65c0,.792.924,1.65,2.442,1.65,1.848,0,2.706-.924,2.706-1.782,0-1.056-1.056-1.32-2.31-1.386Zm-.858-4.818a1.715,1.715,0,0,0,1.782,1.848,1.663,1.663,0,0,0,1.782-1.782,1.783,1.783,0,1,0-3.564-.066Z" transform="translate(-77.887 -23.568)" fill="#fff"/>
          <path id="Path_40040" data-name="Path 40040" d="M142.266,29.18c0-.528-.066-1.452-.066-1.716,0-.066,0-.066.066-.066h.792c.066,0,.132,0,.132.066a2.741,2.741,0,0,1,.066.858,3.521,3.521,0,0,1,2.508-1.122c1.122,0,2.574.528,2.574,3.036v4.686c0,.066-.066.066-.132.066h-.858c-.066,0-.132,0-.132-.132V30.3c0-1.254-.528-2.178-1.716-2.178a2.753,2.753,0,0,0-2.178,1.122v5.611c0,.066,0,.066-.066.066H142.4c-.066,0-.066,0-.066-.066l-.066-5.677Z" transform="translate(-82.068 -23.636)" fill="#fff"/>
        </g>
      </g>
    </g>
  </g>
</svg>
